<svg id="Layer_1" data-name="Layer 1" xmlns="http://www.w3.org/2000/svg" xmlns:xlink="http://www.w3.org/1999/xlink" viewBox="0 0 1920 1080"><defs><style>.cls-1{fill:#007fc3;}.cls-2{fill:#ee3e33;}.cls-3{fill:none;stroke:#007fc3;stroke-linecap:round;stroke-linejoin:round;stroke-width:4.77px;}.cls-4{fill:#fff;}.cls-5{fill:#f89c27;}.cls-6{fill:#add036;}.cls-7{fill:#46a4db;}.cls-8{fill:#00929a;}.cls-9{fill:url(#linear-gradient);}.cls-10{fill:#a34398;}</style><linearGradient id="linear-gradient" x1="456.61" y1="686.88" x2="410.85" y2="686.88" gradientUnits="userSpaceOnUse"><stop offset="0" stop-color="#3c5ca9"/><stop offset="1" stop-color="#3c5ca9"/></linearGradient></defs><title>MYCONNECTT V3-FEB 2021</title><path class="cls-1" d="M1602.46,576.93a151.13,151.13,0,0,0,18.63-15.44l-39.59,22.89c-12.84,2.6-26.39,2.43-39.45.65-23.76-3.32-41.79-20.82-53.3-40.66-8-13.79-11.42-28.68-12.46-44.08a193.42,193.42,0,0,1,44.44-12.71l34.55-41.19c-28.46,4.45-54.67,15.61-79,30.31.12-2.23.24-4.47.41-6.7,1.77-22.46,12.92-42.06,28.24-57.42l-46.54,26.84c-19.71,18.5-28.24,44.32-29.25,71.32-1.06.88-2.12,1.74-3.16,2.63l3.23,12.45.13-.08c2.22,31.35,15.87,60.78,43.17,77.56,23.39,14.35,52.17,11.87,76.91,4,17.93-9.4,36.25-18.45,52.68-30.09,1-.52,1.91-1,2.88-1.53C1604.18,576.11,1603.3,576.48,1602.46,576.93Z"/><path class="cls-2" d="M1536.28,609.5A152,152,0,0,0,1555,594l-39.66,22.92c-12.82,2.58-26.34,2.4-39.38.62-23.76-3.31-41.8-20.81-53.31-40.66-8-13.8-11.42-28.73-12.45-44.15a194,194,0,0,1,44.45-12.62l34.53-41.22c-28.45,4.46-54.68,15.63-79,30.32.13-2.22.24-4.46.41-6.7,1.79-22.47,12.94-42.05,28.25-57.4l-46.53,26.84c-19.71,18.5-28.26,44.31-29.26,71.33-1,.87-2.12,1.73-3.16,2.62L1325.35,587a439.36,439.36,0,0,1,37.92-28.78c2.22,31.35,15.87,60.79,43.18,77.55,23.39,14.35,52.16,11.89,76.89,3.94,17.91-9.37,36.2-18.4,52.62-30,1-.52,2-1,3-1.56C1538.06,608.64,1537.15,609,1536.28,609.5Z"/><path class="cls-3" d="M1294.6,474V427.6a62.6,62.6,0,0,1,62.6-62.6H1582a62.6,62.6,0,0,1,62.6,62.6V652.4A62.6,62.6,0,0,1,1582,715H1357.2a62.6,62.6,0,0,1-62.6-62.6"/><path class="cls-4" d="M275.4,474.1h63.39l20.66,85.06h.4l20.66-85.06H443.9V618.7H401.78V525.94h-.41L376.26,618.7H343l-25.11-92.76h-.4V618.7H275.4Z"/><path class="cls-4" d="M536.05,610.6c-3.24,9.32-6.88,21.27-13.16,29.16-10.53,13.17-26.73,13-42.33,13H462.33v-32h9.32c4.05,0,9.32.4,12.15-1,2.43-1.21,3.85-3.24,3.85-7.89,0-5.07-15.39-43.75-17.62-49.83l-17.82-48.4h42.93L512,574h.41l17-60.35h41.52Z"/><path class="cls-4" d="M679.09,561.16,718,572.92q-3.93,16.4-12.35,27.38a53.6,53.6,0,0,1-20.94,16.57c-8.35,3.71-18.94,5.6-31.82,5.6q-23.48,0-38.33-6.81t-25.63-24q-10.82-17.16-10.78-43.93,0-35.7,19-54.87t53.71-19.18q27.15,0,42.7,11t23.1,33.72l-39.22,8.73c-1.39-4.38-2.82-7.59-4.34-9.6a25.59,25.59,0,0,0-9.11-7.87,26.18,26.18,0,0,0-12.07-2.75q-15.09,0-23.14,12.18-6.09,9-6.09,28.34,0,23.93,7.25,32.82t20.41,8.87c8.49,0,14.92-2.38,19.27-7.19s7.51-11.68,9.48-20.77"/><path class="cls-4" d="M770.74,547.58a18.05,18.05,0,0,1,14.41-6.71,17.43,17.43,0,0,1,13.83,6.6q5.6,6.63,5.59,20.18,0,14.49-5.54,21.08a18.53,18.53,0,0,1-28.35-.08c-3.76-4.48-5.63-11.33-5.63-20.63q0-13.71,5.69-20.44M744,609.51q15.53,12.75,40.63,12.77,28.16,0,44.09-15.35t15.93-39.42q0-21.39-12.84-36-16-18.15-47.28-18.16-27.37,0-43.45,15.47T725,568.1q0,25.59,19,41.38"/><path class="cls-4" d="M856.9,619.91V515.76h37.16v17q8.34-10.38,16.88-14.86c5.69-3,12.6-4.47,20.79-4.47q16.57,0,25.94,9.87T967,553.76V620H926.92V562.63c0-6.53-1.22-11.16-3.63-13.87s-5.83-4.06-10.2-4.06a14.48,14.48,0,0,0-11.76,5.47q-4.53,5.51-4.51,19.73v50Z"/><path class="cls-4" d="M983.85,619.91V515.76H1021v17q8.34-10.38,16.88-14.86c5.67-3,12.61-4.47,20.78-4.47q16.59,0,25.94,9.87t9.38,30.46V620h-40.13V562.63q0-9.79-3.61-13.87t-10.21-4.06a14.51,14.51,0,0,0-11.77,5.47q-4.53,5.51-4.52,19.73v50Z"/><path class="cls-4" d="M1151.13,544.59a18.08,18.08,0,0,1,15.2-7.55c5.49,0,9.93,1.65,13.3,5s5.45,8.87,6.22,16.56h-39.32q1-9.3,4.6-14m68.56-4.81A45.69,45.69,0,0,0,1200,520.18q-13-6.78-35.31-6.79-27.57,0-43.21,15.12T1105.8,568q0,17.18,7.81,29.87t19.66,18.54q11.88,5.82,32.57,5.84,23.85,0,36.58-6.83T1224.19,593l-39.33-3.64a26.23,26.23,0,0,1-7,6.57,22.3,22.3,0,0,1-11.17,2.93,18.87,18.87,0,0,1-15.09-6.75q-4.12-4.7-5.22-14.31h80v-4.53q0-20.61-6.76-33.44"/><path class="cls-4" d="M1315.45,579.21l38,4.32a53.08,53.08,0,0,1-10.29,20.54,48,48,0,0,1-18.31,13.5q-11.14,4.8-28.3,4.82-16.56,0-27.62-3.12a48.32,48.32,0,0,1-19-10A51.22,51.22,0,0,1,1237.45,593c-3-6.23-4.49-14.45-4.49-24.72q0-16.08,5.48-26.78a48.12,48.12,0,0,1,11-14.07,50.77,50.77,0,0,1,14.31-9.27q11.67-4.81,29.92-4.82,25.51,0,38.91,9.14t18.77,26.66l-37.57,5a17.36,17.36,0,0,0-6.43-10c-3.12-2.26-7.28-3.41-12.5-3.41a20.18,20.18,0,0,0-16,7.13c-4.07,4.75-6.14,11.92-6.14,21.55,0,8.55,2,15,6.1,19.51a20,20,0,0,0,15.48,6.66,21.37,21.37,0,0,0,13.2-4q5.35-4.05,8-12.37"/><rect class="cls-5" x="546.74" y="663.93" width="20rem" height="45.9"/><rect class="cls-6" x="614.68" y="663.93" width="45.9" height="45.9"/><rect class="cls-7" x="682.95" y="663.93" width="45.9" height="45.9"/><rect class="cls-8" x="342.99" y="663.93" width="45.9" height="45.88"/><rect class="cls-2" x="275.08" y="663.93" width="45.9" height="45.89"/><rect class="cls-9" x="410.9" y="663.93" width="45.9" height="45.89"/><rect class="cls-10" x="478.82" y="663.93" width="45.9" height="45.9"/><path class="cls-4" d="M747.58,707.05V667.83h7.92v39.22Z"/><path class="cls-4" d="M788.83,707.05h-7.52v-14.5a22.44,22.44,0,0,0-.48-5.95,4.18,4.18,0,0,0-1.56-2.1,4.51,4.51,0,0,0-2.61-.75,6,6,0,0,0-3.51,1.07,5.37,5.37,0,0,0-2.12,2.84,24.1,24.1,0,0,0-.58,6.52v12.87h-7.51V678.64h7v4.18a11.62,11.62,0,0,1,13.91-3.92,7.58,7.58,0,0,1,3.11,2.28,8.12,8.12,0,0,1,1.47,3.16,23.17,23.17,0,0,1,.42,5Z"/><path class="cls-4" d="M809.48,678.64v6h-5.14v11.44a27.83,27.83,0,0,0,.15,4,1.63,1.63,0,0,0,.67,1,2.12,2.12,0,0,0,1.27.38,9.77,9.77,0,0,0,3-.72l.64,5.83a14.86,14.86,0,0,1-5.93,1.12,9.52,9.52,0,0,1-3.67-.68,5.39,5.39,0,0,1-2.39-1.77,7,7,0,0,1-1.06-2.93,36.37,36.37,0,0,1-.24-5.29V684.64h-3.45v-6h3.45V673l7.54-4.39v10Z"/><path class="cls-4" d="M831.15,698l7.49,1.25a12.39,12.39,0,0,1-4.56,6.28,13.45,13.45,0,0,1-7.8,2.15q-7.41,0-11-4.84a16.27,16.27,0,0,1-2.81-9.79q0-7.06,3.69-11.06a12.17,12.17,0,0,1,9.34-4q6.35,0,10,4.19C838,685,839.14,689.25,839,695H820.21a7.56,7.56,0,0,0,1.82,5.2,5.63,5.63,0,0,0,4.33,1.86,4.6,4.6,0,0,0,3-1A6,6,0,0,0,831.15,698Zm.42-7.6a7.2,7.2,0,0,0-1.68-5,5.15,5.15,0,0,0-3.91-1.7,5.2,5.2,0,0,0-4.06,1.8,6.9,6.9,0,0,0-1.58,4.86Z"/><path class="cls-4" d="M852.36,707.05h-7.52V678.64h7v4a12.15,12.15,0,0,1,3.23-3.77,5.9,5.9,0,0,1,3.25-.91,9.51,9.51,0,0,1,5,1.42L860.92,686a6.6,6.6,0,0,0-3.53-1.23,4.21,4.21,0,0,0-2.68.87,6,6,0,0,0-1.72,3.14c-.42,1.52-.63,4.69-.63,9.53Z"/><path class="cls-4" d="M866.49,674.79v-7H874v7Zm0,32.26V678.64H874v28.41Z"/><path class="cls-4" d="M881.15,678.64h6.93v3.88a11.14,11.14,0,0,1,8.85-4.52,9.48,9.48,0,0,1,4.73,1.12,8.56,8.56,0,0,1,3.29,3.4,13.16,13.16,0,0,1,4-3.4,9.92,9.92,0,0,1,4.63-1.12,10.3,10.3,0,0,1,5.3,1.27,7.79,7.79,0,0,1,3.23,3.73,16.17,16.17,0,0,1,.78,5.89v18.16h-7.52V690.81c0-2.82-.26-4.63-.77-5.46a3.59,3.59,0,0,0-3.21-1.6,5.1,5.1,0,0,0-3,1,5.36,5.36,0,0,0-2,2.82,20.44,20.44,0,0,0-.61,5.88v13.64h-7.52V691.48a21.5,21.5,0,0,0-.4-5.35,3.43,3.43,0,0,0-1.24-1.79,4,4,0,0,0-2.29-.59,5.42,5.42,0,0,0-3.13.94,5,5,0,0,0-2,2.7,19.7,19.7,0,0,0-.61,5.85v13.81h-7.51Z"/><path class="cls-4" d="M966.14,707.05h-7v-4.17a11.23,11.23,0,0,1-4.1,3.62,10.59,10.59,0,0,1-4.78,1.19,10.8,10.8,0,0,1-8.38-3.94c-2.33-2.63-3.5-6.31-3.5-11s1.14-8.48,3.4-11a11.08,11.08,0,0,1,8.59-3.76,10.65,10.65,0,0,1,8.24,4V667.83h7.51Zm-20-14.82c0,3,.41,5.22,1.25,6.58a5.67,5.67,0,0,0,5.08,2.94,5.52,5.52,0,0,0,4.41-2.2c1.22-1.48,1.82-3.68,1.82-6.6q0-4.89-1.76-7.05a5.8,5.8,0,0,0-9,0Q946.09,688,946.09,692.23Z"/><path class="cls-4" d="M973.56,674.79v-7h7.51v7Zm0,32.26V678.64h7.51v28.41Z"/><path class="cls-4" d="M988.08,708.92l8.58,1.05a2.94,2.94,0,0,0,1,2,5.59,5.59,0,0,0,3.37.81,8.71,8.71,0,0,0,4.41-.89,3.57,3.57,0,0,0,1.49-1.89,11.21,11.21,0,0,0,.35-3.46v-4.14a10.15,10.15,0,0,1-8.5,4.6,10.49,10.49,0,0,1-9.07-4.84,16.46,16.46,0,0,1-2.62-9.53q0-7.14,3.44-10.91a11.08,11.08,0,0,1,8.54-3.77,10.42,10.42,0,0,1,8.7,4.63v-4h7v25.49a25.49,25.49,0,0,1-.83,7.52,9.3,9.3,0,0,1-2.32,3.9,10.45,10.45,0,0,1-4,2.23,21.26,21.26,0,0,1-6.33.8q-7.22,0-10.24-2.48a7.74,7.74,0,0,1-3-6.27C988.05,709.58,988.06,709.28,988.08,708.92Zm6.71-16.66c0,3,.58,5.22,1.76,6.62a5.39,5.39,0,0,0,4.31,2.1,6,6,0,0,0,4.66-2.15c1.26-1.44,1.9-3.57,1.9-6.39s-.61-5.12-1.82-6.55a5.8,5.8,0,0,0-4.6-2.14,5.52,5.52,0,0,0-4.45,2.1C995.37,687.25,994.79,689.38,994.79,692.26Z"/><path class="cls-4" d="M1022.24,674.79v-7h7.52v7Zm0,32.26V678.64h7.52v28.41Z"/><path class="cls-4" d="M1050.49,678.64v6h-5.14v11.44a27.83,27.83,0,0,0,.15,4,1.63,1.63,0,0,0,.67,1,2.12,2.12,0,0,0,1.27.38,9.77,9.77,0,0,0,3-.72l.64,5.83a14.86,14.86,0,0,1-5.93,1.12,9.52,9.52,0,0,1-3.67-.68,5.34,5.34,0,0,1-2.39-1.77,7,7,0,0,1-1.06-2.93,36.37,36.37,0,0,1-.24-5.29V684.64h-3.45v-6h3.45V673l7.54-4.39v10Z"/><path class="cls-4" d="M1061.32,687.31l-6.82-1.23a10.64,10.64,0,0,1,4-6.1q2.82-2,8.35-2c3.35,0,5.84.39,7.49,1.19a7.45,7.45,0,0,1,3.46,3q1,1.83,1,6.73l-.09,8.77a30.23,30.23,0,0,0,.37,5.52,15.93,15.93,0,0,0,1.34,3.82H1073q-.3-.75-.72-2.22c-.13-.45-.22-.74-.27-.88a13.8,13.8,0,0,1-4.12,2.81,11.85,11.85,0,0,1-4.68.93,9.68,9.68,0,0,1-6.92-2.38,7.93,7.93,0,0,1-2.52-6,8,8,0,0,1,1.15-4.29,7.47,7.47,0,0,1,3.22-2.89,25.07,25.07,0,0,1,6-1.75,40.2,40.2,0,0,0,7.3-1.85v-.75a3.88,3.88,0,0,0-1.07-3.09c-.71-.61-2.06-.92-4-.92a5.35,5.35,0,0,0-3.13.79A5.54,5.54,0,0,0,1061.32,687.31Zm10.06,6.1c-1,.32-2.49.7-4.57,1.15a13.76,13.76,0,0,0-4.09,1.31,3.12,3.12,0,0,0-1.47,2.65,3.71,3.71,0,0,0,1.17,2.73,4.14,4.14,0,0,0,3,1.14,6.5,6.5,0,0,0,3.87-1.33,4.69,4.69,0,0,0,1.79-2.49,14.52,14.52,0,0,0,.3-3.66Z"/><path class="cls-4" d="M1086.17,707.05V667.83h7.52v39.22Z"/></svg>