<?xml version="1.0" encoding="utf-8"?>
<!-- Generator: Adobe Illustrator 22.0.1, SVG Export Plug-In . SVG Version: 6.00 Build 0)  -->
<svg version="1.1" xmlns="http://www.w3.org/2000/svg" xmlns:xlink="http://www.w3.org/1999/xlink" x="0px" y="0px"
	 viewBox="0 0 632.1 435.7" style="enable-background:new 0 0 632.1 435.7;" xml:space="preserve">
<style type="text/css">
	.st0{display:none;}
	.st1{display:inline;fill:none;stroke:#2E63A8;stroke-width:11.2209;stroke-linecap:round;stroke-miterlimit:10;}
	.st2{display:inline;fill:none;stroke:#212121;stroke-width:7.4806;stroke-linecap:round;stroke-miterlimit:10;}
	.st3{display:inline;fill:#F9F9F9;stroke:#2E63A8;stroke-width:7.4806;stroke-miterlimit:10;}
	.st4{display:inline;fill:#F9F9F9;stroke:#2E63A8;stroke-width:7.4806;stroke-linecap:round;stroke-miterlimit:10;}
	.st5{display:inline;}
	.st6{fill:#212121;}
	.st7{display:inline;fill:none;stroke:#2E63A8;stroke-width:11.2229;stroke-linecap:round;stroke-miterlimit:10;}
	.st8{fill:none;stroke:#2E63A8;stroke-width:11.2229;stroke-linecap:round;stroke-miterlimit:10;}
	.st9{fill:none;stroke:#2E63A8;stroke-width:11.2229;stroke-linecap:round;stroke-miterlimit:10;stroke-dasharray:37.9441,37.9441;}
	.st10{fill:none;stroke:#2E63A8;stroke-width:11.2229;stroke-linecap:round;stroke-miterlimit:10;stroke-dasharray:43.194,43.194;}
	.st11{display:inline;fill:#F9F9F9;stroke:#2E63A8;stroke-width:11.2229;stroke-linecap:round;stroke-miterlimit:10;}
	.st12{display:inline;fill:none;stroke:#212121;stroke-width:7.4819;stroke-linecap:round;stroke-miterlimit:10;}
	.st13{display:inline;fill:#F9F9F9;stroke:#2E63A8;stroke-width:7.4819;stroke-miterlimit:10;}
	.st14{display:inline;fill:#F9F9F9;stroke:#2E63A8;stroke-width:7.4819;stroke-linecap:round;stroke-miterlimit:10;}
	.st15{fill:none;stroke:#2E63A8;stroke-width:11.2106;stroke-linecap:round;stroke-miterlimit:10;}
	.st16{fill:#F9F9F9;stroke:#2E63A8;stroke-width:11.2106;stroke-linecap:round;stroke-miterlimit:10;}
	.st17{fill:none;stroke:#212121;stroke-width:7.4738;stroke-linecap:round;stroke-miterlimit:10;}
	.st18{fill:#F9F9F9;stroke:#2E63A8;stroke-width:7.4738;stroke-miterlimit:10;}
	.st19{fill:#F9F9F9;stroke:#2E63A8;stroke-width:7.4738;stroke-linecap:round;stroke-miterlimit:10;}
	.st20{fill:#2E63A8;}
</style>
<g id="Créer_à_partir_d_x27_un_modèle" class="st0">
	<line class="st1" x1="5.6" y1="430.1" x2="54.2" y2="430.1"/>
	<line class="st1" x1="577.9" y1="430.1" x2="626.5" y2="430.1"/>
	<line class="st1" x1="114.1" y1="430.1" x2="514.3" y2="430.1"/>
	<path class="st1" d="M469.4,430.1H159V74.8c0-8.3,6.7-15,15-15h280.5c8.3,0,15,6.7,15,15V430.1z"/>
	<path class="st1" d="M447,59.8H185.1V46.8c0-8.3,6.7-15,15-15H432c8.3,0,15,6.7,15,15V59.8z"/>
	<path class="st1" d="M420.8,31.8H211V20.6c0-8.3,6.7-15,15-15h179.9c8.3,0,15,6.7,15,15V31.8z"/>
	<path class="st2" d="M428.3,149.6H203.8c-8.3,0-15-6.7-15-15v-15c0-8.3,6.7-15,15-15h224.4c8.3,0,15,6.7,15,15v15
		C443.2,142.9,436.5,149.6,428.3,149.6z"/>
	<line class="st3" x1="196.4" y1="202" x2="316.1" y2="202"/>
	<line class="st2" x1="196.4" y1="224.4" x2="316.1" y2="224.4"/>
	<line class="st2" x1="196.4" y1="246.9" x2="316.1" y2="246.9"/>
	<line class="st2" x1="373.3" y1="340.4" x2="435.7" y2="340.4"/>
	<line class="st2" x1="373.3" y1="362.8" x2="435.7" y2="362.8"/>
	<line class="st2" x1="373.3" y1="385.3" x2="435.7" y2="385.3"/>
	<line class="st4" x1="346" y1="340.4" x2="346" y2="340.4"/>
	<line class="st4" x1="346" y1="362.8" x2="346" y2="362.8"/>
	<line class="st4" x1="346" y1="385.3" x2="346" y2="385.3"/>
	<g class="st5">
		<g>
			<path class="st6" d="M390.9,183.3c-22.7,0-41.1,18.5-41.1,41.1c0,11.8,5,22.4,12.9,29.9c0.1,0.2,0.3,0.3,0.5,0.4
				c7.3,6.7,17.1,10.8,27.7,10.8s20.4-4.1,27.7-10.8c0.2-0.1,0.3-0.3,0.5-0.4c7.9-7.5,12.9-18.1,12.9-29.9
				C432,201.7,413.5,183.3,390.9,183.3z M390.9,256.6c-7.3,0-14-2.4-19.4-6.6c3.9-7,11.3-11.3,19.4-11.3c8.2,0,15.5,4.4,19.4,11.3
				C404.9,254.2,398.2,256.6,390.9,256.6z M383.7,222.6v-2.9c0-3.9,3.2-7.2,7.2-7.2s7.2,3.2,7.2,7.2v2.9c0,3.9-3.2,7.2-7.2,7.2
				S383.7,226.6,383.7,222.6z M416.8,243.5c-3.3-4.9-7.9-8.7-13.2-11c2.1-2.7,3.4-6.1,3.4-9.8v-2.9c0-8.9-7.2-16.1-16.1-16.1
				c-8.9,0-16.1,7.2-16.1,16.1v2.9c0,3.7,1.3,7.1,3.4,9.8c-5.3,2.3-9.9,6.2-13.2,11c-3.9-5.3-6.3-11.9-6.3-19.1
				c0-17.8,14.4-32.2,32.2-32.2s32.2,14.4,32.2,32.2C423.1,231.6,420.7,238.2,416.8,243.5z"/>
		</g>
	</g>
	<circle class="st3" cx="254.3" cy="360.9" r="24.3"/>
</g>
<g id="Dupliquer_une_offre_déjà_existante" class="st0">
	<line class="st7" x1="5.6" y1="430" x2="54.2" y2="430"/>
	<line class="st7" x1="578" y1="430" x2="626.6" y2="430"/>
	<line class="st7" x1="114.1" y1="430" x2="514.4" y2="430"/>
	<g class="st5">
		<g>
			<polyline class="st8" points="426.5,364.5 426.5,387 404,387 			"/>
			<line class="st9" x1="366.1" y1="387" x2="157.4" y2="387"/>
			<polyline class="st8" points="138.4,387 116,387 116,364.5 			"/>
			<path class="st10" d="M116,321.3V31.6c0-8.3,6.7-15,15-15h280.6c8.3,0,15,6.7,15,15v311.3"/>
		</g>
	</g>
	<path class="st11" d="M469.5,430H159V74.6c0-8.3,6.7-15,15-15h280.6c8.3,0,15,6.7,15,15V430z"/>
	<path class="st12" d="M428.3,149.4H203.9c-8.3,0-15-6.7-15-15v-15c0-8.3,6.7-15,15-15h224.5c8.3,0,15,6.7,15,15v15
		C443.3,142.7,436.6,149.4,428.3,149.4z"/>
	<line class="st13" x1="196.4" y1="201.8" x2="316.1" y2="201.8"/>
	<line class="st12" x1="196.4" y1="224.2" x2="316.1" y2="224.2"/>
	<line class="st12" x1="196.4" y1="246.7" x2="316.1" y2="246.7"/>
	<line class="st12" x1="373.4" y1="340.2" x2="435.8" y2="340.2"/>
	<line class="st12" x1="373.4" y1="362.7" x2="435.8" y2="362.7"/>
	<line class="st12" x1="373.4" y1="385.1" x2="435.8" y2="385.1"/>
	<line class="st14" x1="346" y1="340.2" x2="346" y2="340.2"/>
	<line class="st14" x1="346" y1="362.7" x2="346" y2="362.7"/>
	<line class="st14" x1="346" y1="385.1" x2="346" y2="385.1"/>
	<g class="st5">
		<g>
			<path class="st6" d="M390.9,183.1c-22.7,0-41.1,18.5-41.1,41.1c0,11.8,5,22.4,12.9,29.9c0.1,0.2,0.3,0.3,0.5,0.4
				c7.3,6.7,17.1,10.8,27.8,10.8s20.4-4.1,27.8-10.8c0.2-0.1,0.3-0.3,0.5-0.4c7.9-7.5,12.9-18.1,12.9-29.9
				C432.1,201.6,413.6,183.1,390.9,183.1z M390.9,256.4c-7.3,0-14-2.4-19.5-6.6c3.9-7,11.3-11.3,19.5-11.3c8.2,0,15.5,4.4,19.5,11.3
				C405,254,398.2,256.4,390.9,256.4z M383.8,222.5v-2.9c0-3.9,3.2-7.2,7.2-7.2s7.2,3.2,7.2,7.2v2.9c0,3.9-3.2,7.2-7.2,7.2
				S383.8,226.4,383.8,222.5z M416.8,243.3c-3.3-4.9-7.9-8.7-13.2-11c2.1-2.7,3.4-6.1,3.4-9.8v-2.9c0-8.9-7.2-16.1-16.1-16.1
				s-16.1,7.2-16.1,16.1v2.9c0,3.7,1.3,7.1,3.4,9.8c-5.3,2.3-9.9,6.2-13.2,11c-3.9-5.3-6.3-11.9-6.3-19.1
				c0-17.8,14.4-32.2,32.2-32.2c17.8,0,32.2,14.4,32.2,32.2C423.1,231.4,420.8,238,416.8,243.3z"/>
		</g>
	</g>
	<circle class="st13" cx="254.4" cy="360.8" r="24.3"/>
</g>
<g id="Créer_une_offre_à_partir_d_x27_un_formulaire_vide">
	<line class="st15" x1="6.3" y1="430.4" x2="54.9" y2="430.4"/>
	<line class="st15" x1="578" y1="430.4" x2="626.6" y2="430.4"/>
	<line class="st15" x1="114.7" y1="430.4" x2="514.5" y2="430.4"/>
	<path class="st16" d="M469.7,345v85.5H159.5v-355c0-8.3,6.7-14.9,14.9-14.9h280.3c8.3,0,14.9,6.7,14.9,14.9v61.2"/>
	<path class="st17" d="M428.6,150.2H204.3c-8.3,0-14.9-6.7-14.9-14.9v-14.9c0-8.3,6.7-14.9,14.9-14.9h224.2
		c8.3,0,14.9,6.7,14.9,14.9v14.9C443.5,143.5,436.8,150.2,428.6,150.2z"/>
	<line class="st18" x1="196.9" y1="202.5" x2="316.4" y2="202.5"/>
	<line class="st17" x1="196.9" y1="224.9" x2="316.4" y2="224.9"/>
	<line class="st17" x1="196.9" y1="247.3" x2="316.4" y2="247.3"/>
	<line class="st17" x1="373.6" y1="340.8" x2="417.3" y2="340.8"/>
	<line class="st19" x1="346.3" y1="340.8" x2="346.3" y2="340.8"/>
	<g>
		<g>
			<path class="st6" d="M391.2,183.8c-22.7,0-41.1,18.4-41.1,41.1c0,11.8,5,22.4,12.9,29.9c0.1,0.2,0.3,0.3,0.5,0.4
				c7.3,6.7,17,10.8,27.7,10.8c10.7,0,20.4-4.1,27.7-10.8c0.2-0.1,0.3-0.3,0.5-0.4c7.9-7.5,12.9-18.1,12.9-29.9
				C432.3,202.2,413.9,183.8,391.2,183.8z M391.2,257.1c-7.3,0-14-2.4-19.4-6.6c3.9-7,11.3-11.3,19.4-11.3s15.5,4.4,19.4,11.3
				C405.2,254.6,398.5,257.1,391.2,257.1z M384,223.1v-2.9c0-3.9,3.2-7.1,7.1-7.1s7.1,3.2,7.1,7.1v2.9c0,3.9-3.2,7.1-7.1,7.1
				S384,227.1,384,223.1z M417.1,244c-3.3-4.9-7.9-8.7-13.2-11c2.1-2.7,3.4-6.1,3.4-9.8v-2.9c0-8.9-7.2-16.1-16.1-16.1
				s-16.1,7.2-16.1,16.1v2.9c0,3.7,1.3,7.1,3.4,9.8c-5.3,2.3-9.9,6.1-13.2,11c-3.9-5.3-6.3-11.9-6.3-19.1
				c0-17.7,14.4-32.2,32.2-32.2s32.2,14.4,32.2,32.2C423.4,232,421,238.6,417.1,244z"/>
		</g>
	</g>
	<circle class="st18" cx="254.8" cy="361.3" r="24.3"/>
	<g>
		<g>
			<path class="st20" d="M554.5,98.4c-7.3-4.2-15.8-5.3-23.9-3.2c-8.1,2.2-14.9,7.4-19.2,14.7l-94.5,163.7c-0.5,0.9-0.8,1.9-1,2.9
				l-6.7,59.6c-0.3,3,1.1,5.8,3.7,7.3c1.2,0.7,2.5,1,3.8,1c1.6,0,3.1-0.5,4.5-1.5l48.3-35.6c0.8-0.6,1.5-1.4,2.1-2.3L566,141.5
				C574.7,126.4,569.6,107.1,554.5,98.4z M426.1,320.7l3.5-31.1l21.7,12.6L426.1,320.7z M462.3,291.2l-28.6-16.5l75.9-131.4
				l28.6,16.5L462.3,291.2z M553,133.9l-7.4,12.8L517,130.2l7.4-12.8c2.2-3.8,5.8-6.6,10-7.7c4.3-1.1,8.7-0.6,12.5,1.7
				c3.8,2.2,6.6,5.8,7.7,10C555.8,125.7,555.2,130.1,553,133.9z"/>
		</g>
	</g>
</g>
</svg>
